HIERARCHY
ROOT Hips
{
	OFFSET	0	0	0
	CHANNELS 6  Xposition Yposition Zposition Xrotation Yrotation Zrotation
	JOINT Spine
	{
		OFFSET	0	0.0328084	0
		CHANNELS 6  Xrotation Yrotation Zrotation Xposition Yposition Zposition
		JOINT Spine1
		{
			OFFSET	0	0.334509	-0.0597337
			CHANNELS 6  Xrotation Yrotation Zrotation Xposition Yposition Zposition
			JOINT Spine2
			{
				OFFSET	0	0.25357	0.0271788
				CHANNELS 6  Xrotation Yrotation Zrotation Xposition Yposition Zposition
				JOINT Spine3
				{
					OFFSET	0	0.303447	0.0901979
					CHANNELS 6  Xrotation Yrotation Zrotation Xposition Yposition Zposition
					JOINT Spine4
					{
						OFFSET	0	0.449197	-0.0459949
						CHANNELS 3  Xrotation Yrotation Zrotation
						JOINT Neck
						{
							OFFSET	0	0.214444	-0.15023
							CHANNELS 3  Xrotation Yrotation Zrotation
							JOINT Head
							{
								OFFSET	0	0.257452	-0.0770565
								CHANNELS 3  Xrotation Yrotation Zrotation
								End Site
								{
									OFFSET	0	0.537006	-0.0259842
								}
							}
						}
					}
					JOINT LeftShoulder
					{
						OFFSET	-0.129025	0.545966	-0.257452
						CHANNELS 3  Xrotation Yrotation Zrotation
						JOINT LeftArm
						{
							OFFSET	-0.3343	-0.0770565	0.0988599
							CHANNELS 3  Xrotation Yrotation Zrotation
							JOINT LeftForeArm
							{
								OFFSET	-0.912438	-0.0416452	0.0651288
								CHANNELS 3  Xrotation Yrotation Zrotation
								JOINT LeftHand
								{
									OFFSET	-0.767321	-0.0530262	0.0547706
									CHANNELS 3  Xrotation Yrotation Zrotation
									End Site
									{
										OFFSET	-0.280034	-0.0193519	0.0199872
									}
								}
							}
						}
					}
					JOINT RightShoulder
					{
						OFFSET	0.129025	0.545966	-0.257452
						CHANNELS 3  Xrotation Yrotation Zrotation
						JOINT RightArm
						{
							OFFSET	0.3343	-0.0770565	0.0988599
							CHANNELS 3  Xrotation Yrotation Zrotation
							JOINT RightForeArm
							{
								OFFSET	0.912438	-0.0416452	0.0651288
								CHANNELS 3  Xrotation Yrotation Zrotation
								JOINT RightHand
								{
									OFFSET	0.767321	-0.0530262	0.0547706
									CHANNELS 3  Xrotation Yrotation Zrotation
									End Site
									{
										OFFSET	0.280034	-0.0193519	0.0199872
									}
								}
							}
						}
					}
				}
			}
		}
	}
	JOINT LeftUpLeg
	{
		OFFSET	-0.320471	-0.263949	-0.0588377
		CHANNELS 3  Xrotation Yrotation Zrotation
		JOINT LeftLeg
		{
			OFFSET	0.00548563	-1.32569	-0.0207234
			CHANNELS 3  Xrotation Yrotation Zrotation
			JOINT LeftFoot
			{
				OFFSET	-0.071207	-1.31257	0.112881
				CHANNELS 3  Xrotation Yrotation Zrotation
				JOINT LeftToeBase
				{
					OFFSET	0	-0.111971	-0.297395
					CHANNELS 3  Xrotation Yrotation Zrotation
					End Site
					{
						OFFSET	0	-0.0447883	-0.179154
					}
				}
			}
		}
	}
	JOINT RightUpLeg
	{
		OFFSET	0.320471	-0.263949	-0.0588377
		CHANNELS 3  Xrotation Yrotation Zrotation
		JOINT RightLeg
		{
			OFFSET	-0.00548563	-1.32569	-0.0207234
			CHANNELS 3  Xrotation Yrotation Zrotation
			JOINT RightFoot
			{
				OFFSET	0.071207	-1.31257	0.112881
				CHANNELS 3  Xrotation Yrotation Zrotation
				JOINT RightToeBase
				{
					OFFSET	0	-0.111971	-0.297395
					CHANNELS 3  Xrotation Yrotation Zrotation
					End Site
					{
						OFFSET	0	-0.0447883	-0.179154
					}
				}
			}
		}
	}
}
MOTION
Frames: 8
Frame Time: 0.05
                -7.3314 4.8148 4.4506 215.8 237.46 -184.064 307.0 360.0 -354.48 0.0 -0.090944 0.0 328.22 360.0 -350.8 0.0 -0.090944 0.0 327.94 359.98 -350.8 0.0 -0.090944 0.0 22.046 2.1822E-4 5.5132 0.0 -0.090944 0.0 351.44 359.86 358.16 359.6 -356.88 321.4 0.91408 36.16 -8.8678 357.9 -305.36 355.46 14.7476 -37.49 113.79 320.74 -291.94 337.24 0.0 -20.792 -18.2496 350.74 303.8 -339.82 115.86 34.928 -152.078 310.04 347.8 -354.18 0.0 7.0952 -2.872 167.682 -32.452 -29.856 197.694 -353.78 -36.0 42.666 -0.145058 15.5188 11.2488 0.0 0.0 141.5 -37.428 47.938 295.62 -357.3 -36.0 338.12 359.92 347.76 331.2 360.0 -360.0
                -7.316 4.7438 4.3868 214.66 235.48 -181.642 305.98 359.98 -354.5 0.0 -0.091158 0.0 327.58 359.96 -350.84 0.0 -0.091158 0.0 327.24 359.92 -350.84 0.0 -0.091158 0.0 22.64 0.0122396 5.4928 0.0 -0.091158 0.0 351.62 359.86 358.16 0.20734 -2.9556 -38.496 1.0926 36.684 -8.872 358.08 -307.28 355.8 15.8344 -37.638 114.814 320.24 -288.0 336.06 0.0 -21.2 -18.5908 351.0 304.12 -340.4 117.28 34.8 -151.48 309.98 347.0 -353.8 0.0 7.8112 -1.7551 168.148 -34.638 -31.12 192.814 -352.74 -36.0 44.05 -0.049972 16.9084 10.435 0.0 0.0 142.282 -36.654 49.07 289.92 -357.98 -36.0 341.6 359.98 347.78 331.66 360.0 -360.0
                -7.2986 4.6722 4.3454 215.6 233.18 -181.56 304.76 360.0 -354.52 0.0 -0.091646 0.0 326.84 359.98 -350.86 0.0 -0.091646 0.0 326.5 359.98 -350.86 0.0 -0.091646 0.0 23.112 5.2068E-4 5.4758 0.0 -0.091646 0.0 351.32 359.86 358.0 0.138792 -2.6704 -38.614 1.07042 37.252 -8.8606 358.68 -309.14 357.12 17.2402 -36.868 115.896 319.92 -288.24 335.42 0.0 -21.12 -19.1764 351.26 304.24 -340.96 118.892 34.6 -150.878 309.94 346.22 -353.3 0.0 8.542 -0.58756 168.184 -37.236 -31.892 188.428 -351.46 -36.0 45.324 0.025708 18.2504 9.6018 0.0 0.0 144.558 -35.446 49.424 281.56 -358.04 -36.0 345.34 -359.98 348.04 332.12 360.0 -360.0
                -7.285 4.614 4.3024 216.9 231.5 -181.532 303.64 -359.98 -354.62 0.0 -0.09222 0.0 326.18 -359.98 -351.0 0.0 -0.09222 0.0 325.8 -359.98 -351.0 0.0 -0.09222 0.0 23.666 -0.002842 5.3756 0.0 -0.09222 0.0 351.36 359.86 358.2 0.48384 -2.6476 -38.714 1.18868 37.604 -8.9054 359.48 -310.0 358.88 18.7018 -35.438 116.784 319.6 -287.48 335.2 0.0 -20.516 -19.9984 351.62 304.6 -341.76 119.714 34.326 -150.244 309.86 344.8 -352.8 0.0 9.3382 0.48754 167.77 -40.88 -32.558 184.76 -350.16 -36.0 46.36 0.113796 19.42 8.808 0.0 0.0 146.498 -33.804 48.848 270.3 -357.38 -36.0 348.6 -359.8 348.48 332.54 360.0 -360.0
                -7.2794 4.561 4.2402 216.88 229.28 -180.52 302.42 -359.98 -354.74 0.0 -0.092934 0.0 325.4 -359.96 -351.2 0.0 -0.092934 0.0 324.94 -359.88 -351.2 0.0 -0.092934 0.0 24.598 -0.018635 5.2438 0.0 -0.092934 0.0 352.14 359.8 358.24 1.8351 -3.1782 -38.874 1.6539 37.706 -9.105 0.15063 -46.65 0.32634 19.7458 -33.378 117.0 319.6 -287.18 334.0 0.0 -19.718 -20.836 352.0 305.08 -342.58 119.846 33.892 -150.054 309.8 343.48 -352.44 0.0 10.0952 1.43384 166.86 -44.32 -33.082 181.69 -349.06 -36.0 46.952 0.173176 20.388 8.098 0.0 0.0 148.08 -32.476 48.246 259.18 -356.42 -36.0 351.28 -359.8 349.12 332.9 360.0 -360.0
                -7.284 4.528 4.14 211.5 227.48 -173.398 301.46 -359.98 -354.82 0.0 -0.093556 0.0 324.88 -359.98 -351.38 0.0 -0.093556 0.0 324.24 -359.94 -351.38 0.0 -0.093556 0.0 25.344 -0.008336 5.1706 0.0 -0.093556 0.0 352.8 359.88 358.2 2.9506 -3.7274 -38.934 2.0364 37.534 -9.266 0.6756 -44.294 1.46126 20.918 -31.052 116.65 319.54 -286.96 335.06 0.0 -18.774 -21.544 352.46 304.92 -343.58 119.712 33.412 -150.72 309.78 342.5 -352.02 0.0 10.922 2.277 166.024 -48.11 -32.0 179.348 -348.18 -36.0 47.42 0.128 21.062 7.4996 0.0 0.0 149.154 -31.49 47.436 249.6 -355.36 -36.0 353.96 -359.7 349.84 333.26 360.0 -360.0
                -7.2778 4.502 4.0834 211.16 226.56 -172.924 300.82 -359.96 -354.54 0.0 -0.094 0.0 324.5 -359.94 -350.9 0.0 -0.094 0.0 323.62 -359.82 -350.9 0.0 -0.094 0.0 26.306 -0.02913 5.45 0.0 -0.094 0.0 354.2 359.9 358.18 5.1566 -4.697 -38.792 2.7736 37.094 -9.5082 1.1976 -42.41 2.586 22.784 -28.844 116.0 319.4 -286.92 335.0 0.0 -17.6344 -22.072 352.52 304.6 -343.6 119.85 33.07 -151.472 309.82 341.8 -351.66 0.0 11.586 2.9866 165.106 -51.602 -32.102 178.394 -347.64 -36.0 47.442 0.07746 21.434 6.8992 0.0 0.0 150.066 -30.72 47.044 243.26 -354.4 -36.0 355.96 -359.74 350.52 333.54 360.0 -360.0
                -7.2762 4.5078 4.024 208.2 225.66 -169.594 300.24 -359.98 -354.36 0.0 -0.09442 0.0 324.14 -359.96 -350.6 0.0 -0.09442 0.0 323.06 -359.9 -350.6 0.0 -0.09442 0.0 27.16 -0.01569 5.6302 0.0 -0.09442 0.0 355.6 359.92 358.12 7.0566 -5.7148 -38.89 3.4258 36.712 -9.792 1.62476 -40.592 3.5022 24.576 -26.794 115.516 319.28 -287.02 335.2 0.0 -16.4598 -22.462 352.18 304.52 -342.96 119.458 32.706 -152.396 309.86 341.68 -351.48 0.0 12.2666 3.718 163.73 -54.08 -32.118 179.218 -346.9 -36.0 46.62 -0.015031 21.686 6.16 0.0 0.0 149.1 -30.432 46.74 238.06 -352.0 -36.0 357.56 -359.66 351.36 333.84 360.0 -360.0
